<svg width="306" height="61" fill="none" xmlns="http://www.w3.org/2000/svg"><path d="M46.932 12.44c-.427.8-1.147 1.547-2.16 2.24-1.014.693-2.24 1.147-3.68 1.36-.267-1.28-.72-2.587-1.36-3.92-.587-1.387-1.467-2.64-2.64-3.76-1.12-1.12-2.56-2.053-4.32-2.8-1.707-.747-3.813-1.12-6.32-1.12-2.24 0-4.48.453-6.72 1.36-2.24.853-4.267 2.24-6.08 4.16-1.813 1.92-3.307 4.427-4.48 7.52-1.12 3.04-1.68 6.747-1.68 11.12 0 4.32.587 8.16 1.76 11.52 1.173 3.36 2.773 6.187 4.8 8.48 2.026 2.24 4.373 3.947 7.04 5.12 2.72 1.173 5.627 1.76 8.72 1.76 3.573 0 6.586-.587 9.04-1.76 2.507-1.227 4.613-2.827 6.32-4.8.32.107.693.32 1.12.64.426.32.693.64.8.96-.427.747-1.12 1.68-2.08 2.8-.96 1.12-2.267 2.213-3.92 3.28-1.6 1.013-3.627 1.893-6.08 2.64-2.4.8-5.28 1.2-8.64 1.2a26.85 26.85 0 01-9.6-1.76c-3.093-1.227-5.84-3.04-8.24-5.44-2.4-2.453-4.32-5.493-5.76-9.12-1.44-3.68-2.16-7.947-2.16-12.8 0-4.267.773-8.267 2.32-12 1.547-3.787 3.627-7.067 6.24-9.84a30.24 30.24 0 019.2-6.56c3.52-1.6 7.253-2.4 11.2-2.4 3.2 0 5.893.453 8.08 1.36 2.24.907 4.026 2 5.36 3.28 1.386 1.28 2.373 2.613 2.96 4 .64 1.333.96 2.427.96 3.28z" fill="#408F95"/><path d="M60.981 36.68c0 3.36.4 6.293 1.2 8.8.854 2.507 1.947 4.613 3.28 6.32 1.387 1.653 2.96 2.907 4.72 3.76a13.187 13.187 0 005.68 1.28c4.267 0 7.52-1.413 9.76-4.24 2.24-2.88 3.36-7.2 3.36-12.96 0-2.773-.32-5.36-.96-7.76-.64-2.4-1.6-4.48-2.88-6.24-1.226-1.76-2.746-3.147-4.56-4.16-1.813-1.013-3.893-1.52-6.24-1.52-1.706 0-3.36.32-4.96.96-1.6.64-3.013 1.653-4.24 3.04-1.226 1.333-2.24 3.067-3.04 5.2-.746 2.08-1.12 4.587-1.12 7.52zm-6.72 2.48c0-3.253.587-6.267 1.76-9.04 1.174-2.827 2.747-5.227 4.72-7.2a21.79 21.79 0 017.04-4.72c2.72-1.173 5.6-1.76 8.64-1.76 3.307 0 6.16.56 8.56 1.68 2.454 1.12 4.454 2.613 6 4.48 1.6 1.867 2.774 4.053 3.52 6.56.8 2.507 1.2 5.147 1.2 7.92 0 3.253-.506 6.293-1.52 9.12-1.013 2.827-2.48 5.307-4.4 7.44-1.866 2.08-4.16 3.733-6.88 4.96-2.72 1.227-5.813 1.84-9.28 1.84-2.56 0-5.013-.48-7.36-1.44a18.827 18.827 0 01-6.24-4.16c-1.76-1.813-3.173-4.027-4.24-6.64-1.013-2.667-1.52-5.68-1.52-9.04zm82.875-5.12c0-4.533-.934-7.84-2.8-9.92-1.867-2.133-4.507-3.2-7.92-3.2-1.227 0-2.454.24-3.68.72a16.135 16.135 0 00-3.44 1.76 19.952 19.952 0 00-3.04 2.64c-.96.96-1.814 1.973-2.56 3.04v29.28c-.747.427-1.734.72-2.96.88a18.84 18.84 0 01-3.36.32V18.6c1.76-.907 3.733-1.36 5.92-1.36v7.92c.693-.907 1.573-1.867 2.64-2.88a24.323 24.323 0 013.68-2.88 21.45 21.45 0 014.48-2.08c1.653-.587 3.413-.88 5.28-.88 4.32 0 7.733 1.307 10.24 3.92 2.56 2.613 3.84 6.347 3.84 11.2v26.8c-.747.427-1.734.72-2.96.88a18.84 18.84 0 01-3.36.32V34.04zm15.265-13.52c.426-.587 1.093-1.12 2-1.6.96-.533 2-.8 3.12-.8h2.56V6.6a8.211 8.211 0 012.96-1.52c1.173-.373 2.293-.56 3.36-.56v13.6h15.68c-.054.907-.32 1.68-.8 2.32-.427.587-.987.88-1.68.88h-13.2v26.24c0 1.707.186 3.093.56 4.16.426 1.013.986 1.813 1.68 2.4a5.666 5.666 0 002.4 1.2c.906.213 1.84.32 2.8.32 1.76 0 3.226-.347 4.4-1.04 1.173-.693 2.133-1.413 2.88-2.16.746.213 1.226.667 1.44 1.36-.267.427-.694.987-1.28 1.68-.587.693-1.36 1.387-2.32 2.08-.96.64-2.107 1.2-3.44 1.68-1.334.48-2.827.72-4.48.72-1.494 0-2.907-.187-4.24-.56a9.266 9.266 0 01-3.52-1.84c-.96-.853-1.734-2-2.32-3.44-.587-1.44-.88-3.227-.88-5.36V21.32h-7.68v-.8zm75.02 35.52c-.16.267-.426.587-.8.96-.32.373-.693.747-1.12 1.12a9.36 9.36 0 01-1.44.88 5.65 5.65 0 01-1.36.56c-1.706-.107-3.146-.747-4.32-1.92-1.173-1.227-1.813-2.827-1.92-4.8-.426.8-1.066 1.653-1.92 2.56-.853.853-1.893 1.653-3.12 2.4-1.173.693-2.533 1.253-4.08 1.68-1.546.48-3.226.72-5.04.72-3.786 0-6.8-.96-9.04-2.88-2.186-1.92-3.28-4.48-3.28-7.68 0-3.307 1.254-6.08 3.76-8.32 2.507-2.24 6.8-3.893 12.88-4.96l9.52-1.68v-3.12c0-3.84-.906-6.773-2.72-8.8-1.76-2.027-4.4-3.04-7.92-3.04-2.186 0-4.053.56-5.6 1.68-1.493 1.067-2.24 2.667-2.24 4.8 0 .96.32 1.813.96 2.56-.48.64-1.253 1.227-2.32 1.76a9.247 9.247 0 01-3.28.96c-.266-.267-.586-.667-.96-1.2-.373-.533-.56-1.253-.56-2.16 0-1.653.48-3.2 1.44-4.64.96-1.44 2.214-2.667 3.76-3.68 1.547-1.067 3.334-1.893 5.36-2.48a22.618 22.618 0 016.32-.88c5.12 0 8.747 1.173 10.88 3.52 2.134 2.293 3.2 5.52 3.2 9.68v20.08c0 2.187.48 3.707 1.44 4.56.96.8 2.08 1.28 3.36 1.44l.16.32zm-22.56-.08c2.774 0 5.12-.64 7.04-1.92 1.974-1.28 3.387-2.933 4.24-4.96V37.56l-10.72 1.92c-2.88.533-5.093 1.44-6.64 2.72-1.493 1.28-2.24 3.12-2.24 5.52 0 2.667.8 4.72 2.4 6.16 1.654 1.387 3.627 2.08 5.92 2.08zm64.76-30.08c-.32.587-.96 1.2-1.92 1.84-.906.64-2.053 1.04-3.44 1.2-.16-.907-.48-1.867-.96-2.88a8.504 8.504 0 00-1.92-2.88c-.853-.907-1.92-1.627-3.2-2.16-1.28-.587-2.826-.88-4.64-.88-1.493 0-3.013.293-4.56.88-1.493.587-2.853 1.547-4.08 2.88-1.226 1.333-2.24 3.04-3.04 5.12-.746 2.08-1.12 4.613-1.12 7.6 0 3.2.427 6 1.28 8.4.854 2.347 2 4.32 3.44 5.92 1.44 1.547 3.094 2.72 4.96 3.52a16.41 16.41 0 006 1.12c2.72 0 5.014-.4 6.88-1.2 1.92-.853 3.547-2.053 4.88-3.6.32.053.64.24.96.56.32.32.534.613.64.88-.426.747-1.093 1.6-2 2.56-.853.907-1.946 1.76-3.28 2.56-1.333.8-2.88 1.467-4.64 2-1.76.587-3.76.88-6 .88-2.666 0-5.2-.453-7.6-1.36a17.843 17.843 0 01-6.24-4.08c-1.76-1.813-3.173-4.027-4.24-6.64-1.013-2.613-1.52-5.653-1.52-9.12 0-3.04.56-5.893 1.68-8.56 1.12-2.72 2.64-5.093 4.56-7.12a21.347 21.347 0 016.96-4.88c2.667-1.227 5.547-1.84 8.64-1.84 2.56 0 4.694.373 6.4 1.12 1.707.693 3.067 1.547 4.08 2.56 1.067.96 1.84 1.973 2.32 3.04.48 1.067.72 1.92.72 2.56zm5.827-5.36c.426-.587 1.093-1.12 2-1.6.96-.533 2-.8 3.12-.8h2.56V6.6a8.211 8.211 0 012.96-1.52c1.173-.373 2.293-.56 3.36-.56v13.6h15.68c-.054.907-.32 1.68-.8 2.32-.427.587-.987.88-1.68.88h-13.2v26.24c0 1.707.186 3.093.56 4.16.426 1.013.986 1.813 1.68 2.4a5.666 5.666 0 002.4 1.2c.906.213 1.84.32 2.8.32 1.76 0 3.226-.347 4.4-1.04 1.173-.693 2.133-1.413 2.88-2.16.746.213 1.226.667 1.44 1.36-.267.427-.694.987-1.28 1.68-.587.693-1.36 1.387-2.32 2.08-.96.64-2.107 1.2-3.44 1.68-1.334.48-2.827.72-4.48.72-1.494 0-2.907-.187-4.24-.56a9.266 9.266 0 01-3.52-1.84c-.96-.853-1.734-2-2.32-3.44-.587-1.44-.88-3.227-.88-5.36V21.32h-7.68v-.8z" fill="#0D2936"/></svg>