<svg width="301" height="138" fill="none" xmlns="http://www.w3.org/2000/svg"><g clip-path="url(#clip0_2638_34362)" fill="#408F95"><path d="M63.947 15.335a.701.701 0 01-.633-.396c-.376-.776-.523-1.552-.447-2.3.398-3.83 6.37-5.74 10.733-7.133 4.602-1.47 9.478-2.317 14.484-2.512.37-.027.714.282.73.673a.703.703 0 01-.676.727c-4.88.19-9.625 1.009-14.108 2.44-3.539 1.134-9.467 3.027-9.767 5.951-.049.494.055 1.014.316 1.557a.697.697 0 01-.327.933.68.68 0 01-.305.07v-.01zm78.654 4.279h-.082a18.807 18.807 0 01-3.354-.7c-1.456-.444-2.541-.987-2.999-1.214l-.153-.076a195.051 195.051 0 00-15.231-6.57c-4.728-1.8-8.469-3.227-13.498-4.474a85.647 85.647 0 00-16.332-2.392.699.699 0 11.07-1.394 86.792 86.792 0 0116.606 2.435c5.115 1.27 8.884 2.707 13.661 4.524a196.991 196.991 0 0115.34 6.612l.169.082c.469.233 1.445.721 2.787 1.133a17.41 17.41 0 003.103.646.696.696 0 01-.082 1.388h-.005z"/><path d="M76.926 27.707a.755.755 0 01-.322-.076 91.646 91.646 0 01-4.712-2.598c-.452-.271-1.297-.77-2.388-1.502a30.346 30.346 0 01-1.064-.738 46.156 46.156 0 01-3.833-3.043.834.834 0 01-.093-.103c-.06-.076-.153-.19-.273-.331-1.232-1.486-2.394-3.032-1.908-4.139.152-.352.529-.78 1.434-.83a.7.7 0 11.082 1.394 1.107 1.107 0 00-.23.033c0 .25.257.906 1.708 2.652.109.13.196.239.261.32a46.304 46.304 0 003.67 2.908c.366.26.71.494 1.031.716 1.058.71 1.882 1.199 2.323 1.464a92.41 92.41 0 004.636 2.555c.343.18.48.597.3.944a.708.708 0 01-.622.38v-.006zm27.96 4.074c-6.86 0-13.448-.77-13.53-.781a113.402 113.402 0 01-12.406-2.256.697.697 0 11.327-1.357c4.04.971 8.163 1.72 12.248 2.224.087.011 9.363 1.096 17.282.673a55.534 55.534 0 007.4-.895c1.096-.206 1.691-.353 4.183-.955l3.016-.732c.987-.239 1.848-.456 2.612-.646 2.279-.569 3.784-.949 5.246-1.052a21.69 21.69 0 016.555.553.694.694 0 01.518.841.696.696 0 01-.845.516 20.464 20.464 0 00-6.13-.516c-1.342.093-2.721.44-5.001 1.015-.769.195-1.636.412-2.623.65l-3.016.733c-2.459.596-3.119.76-4.253.97a58.23 58.23 0 01-7.586.918 75.58 75.58 0 01-3.997.097zm39.924-12.118a.705.705 0 01-.671-.493.697.697 0 01.463-.874c1.637-.499 10.166-3.048 17.195-4.079 3.43-.504 5.944-.553 8.682-.173.894.124 1.789.298 2.661.51a.7.7 0 11-.338 1.356 25.691 25.691 0 00-2.525-.483c-2.596-.364-4.995-.315-8.284.168-6.925 1.02-15.367 3.537-16.987 4.036a.687.687 0 01-.207.032h.011zm20.199 25.386c-.049 0-.098 0-.147-.016-3.142-.673-8.486-3.26-10.438-5.045-1.685-1.253-3.032-2.246-4.178-3.092-3.964-2.924-5.606-4.128-10.814-8.489a.7.7 0 01-.087-.982.708.708 0 01.987-.086c5.175 4.328 6.806 5.532 10.749 8.434 1.156.852 2.514 1.85 4.215 3.12.022.016.038.032.06.048 1.756 1.627 6.888 4.1 9.806 4.725.381.081.621.45.539.83a.703.703 0 01-.687.553h-.005z"/><path d="M165.01 45.049a.704.704 0 01-.513-.222c-1.827-1.937-4.172-5.197-4.952-9.732-.234-1.356-.78-4.529.502-8.136 1.173-3.293 3.218-5.197 5.584-7.404a31.853 31.853 0 017.024-4.942.705.705 0 01.949.293.698.698 0 01-.294.944 30.446 30.446 0 00-6.713 4.724c-2.324 2.165-4.161 3.879-5.219 6.851-1.162 3.266-.66 6.19-.442 7.437.72 4.193 2.896 7.214 4.592 9.01a.693.693 0 01-.033.987.717.717 0 01-.48.19h-.005zm-9.8-21.822a.685.685 0 01-.545-.26.695.695 0 01.103-.982 19.086 19.086 0 013.888-2.425 19.404 19.404 0 015.268-1.6.699.699 0 11.213 1.383 17.868 17.868 0 00-8.491 3.738.71.71 0 01-.442.157l.006-.011zm2.874 15.161a.724.724 0 01-.431-.146c-1.516-1.167-4.21-3.678-5.17-7.4-.295-1.15-.916-3.547.169-5.993.153-.342.333-.678.534-.993a.701.701 0 01.971-.206c.327.212.42.64.207.966-.163.25-.31.52-.43.797-.889 2.007-.371 4.009-.093 5.088.856 3.32 3.294 5.587 4.668 6.64a.697.697 0 01.125.981.692.692 0 01-.556.271l.006-.005zM88.891 23.395c-.147 0-.294 0-.447-.01-3.19-.136-5.448-1.666-6.512-2.567a.694.694 0 01-.081-.981.703.703 0 01.987-.082c.927.787 2.896 2.116 5.66 2.235 2.776.114 4.663-1.041 5.912-1.811.681-.424.943-.679 1.03-.792-.207-.234-1.101-.64-4.002-1.156-2.607-.46-5.35-.575-8.153-.336a.696.696 0 11-.12-1.389c2.923-.25 5.791-.13 8.518.353 2.667.472 5.072 1.02 5.186 2.462.055.657-.463 1.27-1.723 2.045-1.249.77-3.3 2.03-6.26 2.03h.005z"/><path d="M76.555 24.41a.713.713 0 01-.616-.358.694.694 0 01.273-.95 16.097 16.097 0 005.339-4.708 15.518 15.518 0 001.821-3.325.703.703 0 01.91-.39c.36.14.535.547.393.905a17.156 17.156 0 01-1.985 3.618c-1.51 2.105-3.462 3.83-5.797 5.12a.697.697 0 01-.338.088zm-6.451-13.86a1.116 1.116 0 011.287-.911 1.111 1.111 0 11-.37 2.191 1.111 1.111 0 01-.917-1.28zm31.466 26.33a26.177 26.177 0 01-3.6-.293 25.81 25.81 0 01-4.76-1.193c-5.671-2.007-8.774-3.738-13.912-6.602a.694.694 0 01-.267-.949.701.701 0 01.955-.266c5.246 2.924 8.136 4.535 13.698 6.504 1.462.515 2.973.895 4.5 1.128 1.112.168 2.241.26 3.364.277 1.282-.049 1.898-.222 2.176-.347-.343-.233-1.221-.69-3.419-1.378a.696.696 0 11.42-1.329c3.534 1.107 4.728 1.866 4.564 2.891-.207 1.28-2.225 1.503-3.724 1.562l.005-.005z"/><path d="M103.713 33.831c-.436 0-.85-.021-1.243-.043-5.633-.347-10.181-1.54-10.372-1.595a63.49 63.49 0 01-6.32-2.045.7.7 0 01-.404-.9.707.707 0 01.905-.401 62.53 62.53 0 006.179 2.001c.185.049 4.597 1.21 10.094 1.546 1.265.076 2.628.109 4.226-.456a8.953 8.953 0 002.443-1.318.7.7 0 01.982.136.693.693 0 01-.136.976 10.352 10.352 0 01-2.82 1.52c-1.303.46-2.487.58-3.539.58h.005z"/><path d="M126.884 36.88a28 28 0 01-5.458-.537 28.309 28.309 0 01-11.136-4.925.697.697 0 01-.147-.977.706.706 0 01.981-.146 26.831 26.831 0 0010.574 4.681c2.847.57 5.754.662 8.644.288-.109-.934-.425-2.588-1.298-3.781-.251-.342-.665-.912-1.396-1.373-.191-.124-.338-.195-.736-.39l-.278-.136a105.94 105.94 0 01-1.866-.949.697.697 0 01-.294-.944.705.705 0 01.949-.293c.42.223 1.052.548 1.838.933l.272.136c.42.206.611.298.873.466.954.608 1.489 1.335 1.772 1.725 1.358 1.844 1.587 4.421 1.625 5.164a.703.703 0 01-.594.727c-1.44.223-2.885.336-4.33.336l.005-.005zm6.119-22.028a31.62 31.62 0 01-3.348-.2.696.696 0 01-.622-.771.695.695 0 01.774-.619c1.178.125 2.225.19 3.207.196.387 0 .698.314.698.7a.699.699 0 01-.704.694h-.005zm.622-7.925a.758.758 0 01-.218-.033 200.84 200.84 0 01-2.356-.797c-2.165-.743-4.406-1.513-6.729-2.023-10.111-2.045-19.96-2.924-29.263-2.61a.703.703 0 01-.726-.672.699.699 0 01.677-.721c9.407-.32 19.37.564 29.601 2.636 2.415.531 4.689 1.312 6.893 2.072.779.266 1.559.537 2.339.792.371.12.567.515.447.879a.705.705 0 01-.665.482v-.005zM80.062 5.294a.698.698 0 01-.638-.407.698.698 0 01.349-.922 45.399 45.399 0 015.502-2.072 45.496 45.496 0 017.417-1.6.697.697 0 11.18 1.383A44.418 44.418 0 0080.35 5.234a.68.68 0 01-.29.066v-.006z"/><path d="M93.967 3.39a.716.716 0 01-.594-.32.698.698 0 01.213-.965c.147-.093.365-.228.632-.38a13.228 13.228 0 015.917-1.67.7.7 0 01.731.666.7.7 0 01-.671.727 11.84 11.84 0 00-5.29 1.486c-.24.136-.43.255-.567.337a.674.674 0 01-.376.108l.005.011zm9.779.613a.7.7 0 01-.589-.32.7.7 0 01.213-.965 16.7 16.7 0 01.632-.38 13.145 13.145 0 013.229-1.28 13.226 13.226 0 012.694-.39.697.697 0 11.06 1.393 11.836 11.836 0 00-5.29 1.486c-.24.136-.431.255-.567.337a.688.688 0 01-.376.108l-.006.011zm9.019 1.269a.715.715 0 01-.594-.32.699.699 0 01.212-.965c.148-.092.366-.228.633-.38a13.312 13.312 0 015.922-1.67.698.698 0 11.06 1.394 11.836 11.836 0 00-5.289 1.486c-.24.135-.431.255-.568.336a.672.672 0 01-.376.109v.01zM126.17 34.07h-.016c-2.399-.06-4.679-.597-6.768-1.605a16.22 16.22 0 01-2.595-1.568.692.692 0 01-.142-.976.7.7 0 01.981-.142 14.486 14.486 0 002.367 1.433c1.909.916 3.992 1.41 6.19 1.464.387.01.692.33.687.716a.704.704 0 01-.704.683v-.005zm-1.265-2.815a.722.722 0 01-.24-.043l-3.997-1.454a.697.697 0 01-.42-.895.705.705 0 01.9-.418l3.997 1.454c.365.13.551.531.42.895a.704.704 0 01-.66.46zm9.958-16.468a.703.703 0 01-.704-.678.7.7 0 01.682-.716c2.645-.076 3.774-.586 3.959-1.812-.501-1.676-1.788-3.038-3.926-4.155a.697.697 0 01-.295-.944.705.705 0 01.949-.293c2.558 1.335 4.085 3.021 4.663 5.153a.786.786 0 01.022.25c-.295 3.048-3.823 3.151-5.328 3.195h-.022zm29.033 113.883a.706.706 0 01-.578-.304c-.316-.461-.49-.949-.518-1.448-.125-2.452 3.278-4.144 5.764-5.381a32.263 32.263 0 018.279-2.777.705.705 0 01.823.553.697.697 0 01-.556.819 31.107 31.107 0 00-7.918 2.653c-1.898.944-5.067 2.522-4.99 4.063.011.238.103.482.272.726a.698.698 0 01-.578 1.096z"/><path d="M173.375 134.968a.642.642 0 01-.202-.033 43.278 43.278 0 01-3.823-1.356 31.084 31.084 0 01-2.23-1.003 28.15 28.15 0 01-2.531-1.443c-.038-.027-.076-.054-.109-.087-.038-.038-.103-.092-.18-.163-.916-.813-1.794-1.681-1.57-2.522.065-.244.278-.673.981-.819a.703.703 0 01.835.537.702.702 0 01-.322.743c.147.195.442.515 1.014 1.02.066.059.126.108.169.152a26.32 26.32 0 002.351 1.339c.905.456 1.614.749 2.132.961 1.189.488 2.432.933 3.692 1.312a.705.705 0 01.469.874.699.699 0 01-.671.493l-.005-.005z"/><path d="M179.466 135.364c-1.86 0-3.73-.076-5.584-.233a.696.696 0 11.12-1.389c2.427.201 4.881.271 7.296.201.05 0 5.525-.196 10.067-1.145a32.21 32.21 0 004.189-1.172c.61-.217.943-.352 2.339-.927l1.685-.694c.475-.196.895-.375 1.282-.537 1.221-.516 2.105-.89 3.163-1.161a16.38 16.38 0 014.531-.51.708.708 0 01.688.716.7.7 0 01-.72.683 15.338 15.338 0 00-4.145.461c-.96.25-1.799.603-2.966 1.096-.393.168-.818.347-1.298.543l-1.685.694c-1.386.569-1.756.721-2.405.949a34.19 34.19 0 01-4.369 1.221c-4.668.971-10.083 1.166-10.312 1.171a68.65 68.65 0 01-1.87.027l-.006.006zm29.759-11.218h-.027a12.158 12.158 0 01-1.178-.108 11.402 11.402 0 01-1.914-.456l-.082-.027a114.15 114.15 0 00-9.429-2.457c-2.907-.624-5.202-1.118-8.224-1.394a49.62 49.62 0 00-9.663.065.699.699 0 11-.142-1.389 51.562 51.562 0 019.936-.065c3.109.282 5.443.787 8.393 1.421 3.201.689 6.413 1.525 9.549 2.49l.104.033c.261.086.878.282 1.685.401.316.049.638.076.954.092a10.829 10.829 0 001.538-.39c.611-.201 1.041-.407 1.205-.483 1.663-.776 5.492-2.197 8.813-3.152 1.876-.542 3.315-.857 5.11-.884.539-.011 1.09.011 1.625.06a.7.7 0 01.638.759.704.704 0 01-.764.635c-.491-.043-.987-.06-1.483-.054-1.631.021-2.972.32-4.734.83-3.593 1.036-7.247 2.441-8.589 3.064-.202.093-.687.32-1.374.548a13.25 13.25 0 01-1.821.456c-.039.005-.077.011-.12.011l-.006-.006zm16.164 12.807a.757.757 0 01-.283-.06l-7.744-3.411a61.511 61.511 0 01-4.134-2.268 65.114 65.114 0 01-2.966-1.887.696.696 0 01-.186-.971.704.704 0 01.976-.185c.949.64 1.925 1.264 2.901 1.85a60.111 60.111 0 004.014 2.202l7.711 3.396a.702.702 0 01.36.922.702.702 0 01-.643.418l-.006-.006z"/><path d="M225.389 136.953a.695.695 0 01-.534-.249 19.09 19.09 0 01-3.278-5.479c-.638-1.649-1.14-2.951-.927-4.659.24-1.932 1.254-3.212 2.536-4.834l.109-.141a18.972 18.972 0 013.697-3.552.707.707 0 01.982.146.697.697 0 01-.147.976 17.76 17.76 0 00-3.425 3.293l-.109.141c-1.189 1.508-2.05 2.598-2.247 4.144-.169 1.362.235 2.403.846 3.982.703 1.817 1.728 3.525 3.043 5.082a.695.695 0 01-.535 1.145l-.011.005zm-47.123-5.75c-1.608 0-2.852-.602-3.495-.992a.699.699 0 11.736-1.188c.578.352 1.778.922 3.316.754 1.537-.168 2.486-.977 3.119-1.514.093-.076.163-.146.223-.2-.376-.087-1.025-.141-1.946-.163a18.23 18.23 0 00-4.701.521.707.707 0 01-.851-.516.702.702 0 01.518-.846 19.658 19.658 0 015.066-.564c1.778.043 3.267.163 3.512 1.193.148.63-.376 1.177-.91 1.633-.671.57-1.915 1.622-3.878 1.839a6.44 6.44 0 01-.709.038v.005z"/><path d="M172.054 132.825a.697.697 0 01-.43-1.253 9.17 9.17 0 002.601-3.119c.327-.64.573-1.323.736-2.034a.701.701 0 01.84-.521.696.696 0 01.523.836 10.39 10.39 0 01-.85 2.348 10.56 10.56 0 01-2.994 3.597.705.705 0 01-.431.146h.005zm-4.28-6.417h-.022a1.363 1.363 0 01-1.342-1.372 1.345 1.345 0 011.38-1.334c.365 0 .703.151.954.412.251.26.388.602.382.96a1.362 1.362 0 01-1.358 1.334h.006zm-.044-1.356s.016.038.044.044c.021 0 .043-.022.043-.044h-.087zm0 0h.087s-.027-.059-.043-.043a.043.043 0 00-.044.043zM185.662 138c-.977 0-1.953-.092-2.913-.277-3.506-.667-5.475-1.399-8.736-2.614a.696.696 0 01-.409-.901.7.7 0 01.905-.406c3.305 1.231 5.121 1.904 8.508 2.549.878.168 1.75.25 2.666.25.649 0 1.304-.049 1.947-.136.398-.054.764-.179.976-.282-.272-.25-.954-.705-2.35-1.302a.692.692 0 01-.365-.917.7.7 0 01.921-.363c3.141 1.34 3.43 2.197 3.299 2.853-.207 1.025-1.799 1.329-2.279 1.394-.714.098-1.467.147-2.16.152h-.01zm14.386-2.219c-.251 0-.502-.005-.753-.016a16.924 16.924 0 01-7.046-1.909.698.698 0 01-.294-.944.704.704 0 01.949-.293 15.517 15.517 0 006.456 1.747c1.576.07 3.152-.103 4.685-.516-.196-.596-.513-1.258-.944-1.687-.174-.173-.43-.434-.85-.613-.126-.054-.218-.081-.431-.151l-.175-.055a55.439 55.439 0 01-1.178-.385.7.7 0 11.459-1.323c.261.092.659.222 1.145.379l.174.055c.289.092.409.13.578.206a4.104 4.104 0 011.276.906c1.015 1.014 1.396 2.56 1.489 3.01a.698.698 0 01-.474.808 16.754 16.754 0 01-5.061.781h-.005zm2.071-13.37a.707.707 0 01-.703-.668.706.706 0 01.67-.732 17.628 17.628 0 001.855-.174.703.703 0 01.796.586.699.699 0 01-.589.792c-.611.092-1.265.152-1.996.185h-.033v.011z"/><path d="M204.045 122.232a.698.698 0 01-.044-1.394c1.805-.114 2.71-.7 2.787-1.194.07-.455-.557-1.22-2.1-1.833a.698.698 0 11.518-1.297c2.061.814 3.174 2.062 2.967 3.347-.213 1.335-1.74 2.219-4.085 2.365h-.043v.006zm-23.302-4.405a.698.698 0 01-.682-.542.7.7 0 01.529-.836c5.862-1.318 11.779-1.692 17.593-1.112a53.71 53.71 0 014.891.716c.382.076.627.44.556.819a.705.705 0 01-.823.554 54.286 54.286 0 00-4.766-.7c-5.661-.564-11.431-.201-17.14 1.085a.766.766 0 01-.153.016h-.005zm-8.372 3.564a.696.696 0 01-.387-1.28 26.783 26.783 0 016.152-2.973c.245-.081.458-.152.605-.195a.706.706 0 01.878.455.699.699 0 01-.458.874c-.142.043-.338.108-.573.184a25.534 25.534 0 00-5.829 2.821.711.711 0 01-.382.114h-.006z"/><path d="M183.093 117.984a.378.378 0 01-.289-.13.383.383 0 01.033-.542c.076-.065.19-.163.332-.277a7.682 7.682 0 011.756-1.025 7.795 7.795 0 011.527-.467.382.382 0 01.453.304.38.38 0 01-.306.45 7.025 7.025 0 00-2.955 1.34c-.126.098-.229.19-.3.25a.38.38 0 01-.257.097h.006zm3.653-.114a.398.398 0 01-.327-.179.383.383 0 01.115-.531 15.609 15.609 0 012.099-1.123c.475-.212.954-.396 1.44-.559a.394.394 0 01.491.244.392.392 0 01-.246.489 15.522 15.522 0 00-3.037 1.394c-.142.081-.257.157-.333.206a.367.367 0 01-.207.059h.005zm4.619.006a.384.384 0 01-.311-.157.381.381 0 01.082-.537c.082-.06.196-.147.344-.245a11.04 11.04 0 013.233-1.48.385.385 0 11.202.743 9.79 9.79 0 00-1.374.482 10.09 10.09 0 00-1.947 1.112.398.398 0 01-.229.076v.006zm8.927 14.852h-.054l-3.114-.429a.377.377 0 01-.327-.434.382.382 0 01.436-.325l3.114.428c.212.027.36.223.327.434a.386.386 0 01-.382.331v-.005zm20.025-.635a.56.56 0 01-.311-.092 10.45 10.45 0 01-2.47-2.159c-.938-1.123-1.816-2.181-1.702-3.569.12-1.416 1.206-2.317 2.356-3.271.944-.781 2.007-1.4 3.169-1.828a.58.58 0 01.747.336.575.575 0 01-.338.743 9.794 9.794 0 00-2.831 1.633c-1.041.862-1.865 1.546-1.947 2.484-.076.917.589 1.72 1.435 2.734a9.339 9.339 0 002.203 1.926.575.575 0 01-.311 1.063zm17.172-23.623a.702.702 0 01-.681-.532c-.137-.542-.131-1.057.021-1.535.742-2.343 4.527-2.75 7.286-3.043a32.368 32.368 0 018.731.266.699.699 0 11-.229 1.378 30.855 30.855 0 00-8.349-.255c-2.105.228-5.633.607-6.097 2.077a1.436 1.436 0 000 .776.698.698 0 01-.682.868z"/><path d="M244.164 117.653a.72.72 0 01-.425-.141 41.011 41.011 0 01-3.108-2.598 28.68 28.68 0 01-1.74-1.714 27.965 27.965 0 01-1.865-2.229.882.882 0 01-.071-.12c-.022-.049-.06-.119-.109-.211-.578-1.08-1.096-2.197-.589-2.913.147-.206.496-.532 1.205-.429a.704.704 0 01.595.792.7.7 0 01-.562.586c.065.233.234.635.594 1.313.044.076.077.146.104.195a26.302 26.302 0 003.397 3.705 41.125 41.125 0 003.005 2.511.692.692 0 01.131.977.705.705 0 01-.556.276h-.006z"/><path d="M279.137 124.439a.74.74 0 01-.262-.049 15.035 15.035 0 00-4.046-1.003c-.987-.098-1.903-.06-3.169 0-.425.022-.888.038-1.401.06l-1.827.065c-1.494.054-1.892.07-2.579.054a34.688 34.688 0 01-4.521-.374c-4.712-.706-9.86-2.403-10.078-2.479a67.318 67.318 0 01-6.92-2.778.698.698 0 01-.339-.927.706.706 0 01.933-.336 64.483 64.483 0 006.768 2.717c.049.016 5.246 1.73 9.837 2.419 1.418.212 2.88.331 4.336.358.649.011 1.003 0 2.509-.054l1.832-.065c.507-.016.965-.038 1.39-.06 1.326-.059 2.285-.103 3.371.006 1.478.146 2.966.515 4.428 1.096a.695.695 0 01-.262 1.345v.005zm21.159-2.739a.732.732 0 01-.299-.065 13.485 13.485 0 00-1.369-.564c-1.538-.548-2.896-.733-4.728-.868-3.73-.277-7.651-.223-9.124-.103-.223.016-.763.065-1.483.038a12.898 12.898 0 01-1.865-.206.617.617 0 01-.142-.044 10.987 10.987 0 01-2.694-1.6l-.071-.054a114.399 114.399 0 00-7.978-5.571c-2.503-1.595-4.483-2.853-7.221-4.161a50.385 50.385 0 00-9.079-3.292.696.696 0 01-.502-.852.7.7 0 01.856-.499c3.228.83 6.37 1.969 9.336 3.385 2.814 1.345 4.827 2.62 7.368 4.242a114.135 114.135 0 018.076 5.641l.088.065c.218.168.719.57 1.434.96.278.152.567.293.861.418a11.008 11.008 0 002.88.136c1.832-.152 5.917-.152 9.363.103 1.953.146 3.409.341 5.099.944.513.179 1.015.39 1.5.618.349.168.496.58.333.933a.702.702 0 01-.633.396h-.006zm-8.071 15.85a.695.695 0 01-.491-.201l-6.064-5.88a62.808 62.808 0 01-5.203-6.357.698.698 0 011.14-.808 64.069 64.069 0 002.073 2.739 61.926 61.926 0 002.988 3.455l6.037 5.858a.701.701 0 01-.491 1.199l.011-.005z"/><path d="M292.225 137.55a.704.704 0 01-.66-.461 19.063 19.063 0 01-1.15-6.276c-.022-1.769-.033-3.163.763-4.687.905-1.725 2.301-2.576 4.068-3.65l.153-.093a19.13 19.13 0 014.712-2.05.699.699 0 01.867.477.695.695 0 01-.48.863 17.507 17.507 0 00-4.363 1.898l-.152.092c-1.647 1.004-2.836 1.725-3.556 3.109-.638 1.215-.622 2.332-.605 4.024a17.784 17.784 0 001.068 5.821.7.7 0 01-.425.895.715.715 0 01-.234.043l-.006-.005zm-40.213-21.377c-.469 0-.976-.055-1.511-.185-1.908-.477-3.075-1.676-3.604-2.354a.696.696 0 01.12-.982.706.706 0 01.987.12c.42.531 1.341 1.48 2.841 1.855 1.5.374 2.678-.055 3.452-.337.115-.043.207-.076.284-.114-.322-.211-.917-.488-1.773-.824a18.206 18.206 0 00-4.586-1.139.698.698 0 01-.616-.776.696.696 0 01.78-.613c1.739.206 3.408.619 4.946 1.232 1.652.656 3.005 1.285 2.874 2.332-.077.64-.764.971-1.429 1.21-.594.217-1.56.569-2.77.569l.005.006z"/><path d="M243.679 115.191a.698.698 0 01-.212-1.362 9.227 9.227 0 003.533-2.023 9.081 9.081 0 001.407-1.649.706.706 0 01.971-.201.697.697 0 01.202.966 10.483 10.483 0 01-1.62 1.904 10.665 10.665 0 01-4.068 2.332.716.716 0 01-.213.033zm-1.532-7.459a1.353 1.353 0 01-1.265-1.844 1.365 1.365 0 011.761-.77 1.354 1.354 0 01.775 1.752 1.348 1.348 0 01-.72.748c-.175.076-.36.114-.545.114h-.006zm-.044-1.367c-.01.022 0 .049.028.055.016.005.049-.006.054-.027l-.082-.033v.005zm0 0l.082.033s0-.049-.027-.054c-.022-.006-.049.005-.055.027v-.006zm15.416 19.078c-.452 0-.867-.076-1.068-.12a14.65 14.65 0 01-2.056-.602 15.46 15.46 0 01-2.651-1.274c-3.054-1.839-4.641-3.212-7.275-5.479a.694.694 0 01-.07-.987.703.703 0 01.992-.071c2.667 2.295 4.134 3.564 7.084 5.343a14.25 14.25 0 002.41 1.161c.606.222 1.238.407 1.871.548.393.087.78.098 1.014.07-.163-.33-.649-.992-1.745-2.034a.698.698 0 01-.022-.987.708.708 0 01.993-.022c2.47 2.349 2.443 3.25 2.088 3.819-.316.505-.965.64-1.554.64l-.011-.005zm16.17 3.2h-.033a16.854 16.854 0 01-5.72-1.296 16.851 16.851 0 01-5.934-4.231.7.7 0 111.047-.933 15.521 15.521 0 005.438 3.878 15.23 15.23 0 004.569 1.139c.022-.537-.01-1.291-.294-1.904-.104-.222-.256-.553-.578-.873-.098-.092-.175-.152-.349-.288l-.147-.113a44.165 44.165 0 01-.966-.771.695.695 0 01-.098-.982.704.704 0 01.987-.097c.213.173.54.439.944.748l.142.114c.239.185.338.266.469.391.512.499.758 1.036.878 1.291.594 1.296.414 2.88.343 3.336a.7.7 0 01-.692.591h-.006zm3.686-12.291c-.049 0-.098 0-.147-.017-.6-.124-1.238-.298-1.936-.52a.7.7 0 11.431-1.329c.654.206 1.243.368 1.799.482a.699.699 0 01-.147 1.384z"/><path d="M279.339 116.677c-.644 0-1.369-.114-2.165-.353a.697.697 0 11.403-1.334c1.735.515 2.787.282 3.032-.152.23-.401-.092-1.34-1.325-2.441a.698.698 0 01-.054-.987.708.708 0 01.992-.054c1.647 1.475 2.253 3.032 1.609 4.166-.431.759-1.314 1.155-2.492 1.155zm-1.32-5.207a.697.697 0 01-.365-.103 53.119 53.119 0 00-4.221-2.306c-5.11-2.49-10.639-4.149-16.447-4.925a.695.695 0 01-.6-.787.7.7 0 01.791-.596c5.955.797 11.632 2.5 16.878 5.055a51.609 51.609 0 014.335 2.371c.333.2.437.629.235.96a.702.702 0 01-.6.336l-.006-.005zm-30.037-6.889a.693.693 0 01-.682-.543.7.7 0 01.529-.835 27.502 27.502 0 013.458-.553c1.107-.103 2.23-.141 3.348-.103.262.005.48.016.638.027a.701.701 0 01.665.732.703.703 0 01-.736.662l-.605-.027c-1.058-.033-2.127 0-3.174.103a25.617 25.617 0 00-3.278.52.764.764 0 01-.158.017h-.005z"/><path d="M259.112 105.085a.384.384 0 01-.136-.743 7.608 7.608 0 012.416-.494 7.942 7.942 0 011.598.093.384.384 0 01.321.439.39.39 0 01-.441.32 7.056 7.056 0 00-3.24.239c-.152.049-.278.097-.365.13a.416.416 0 01-.136.027l-.017-.011zm3.468 1.161a.384.384 0 01-.082-.759c.093-.022.235-.049.404-.082a16.473 16.473 0 013.506-.271.388.388 0 01.377.396c-.006.212-.197.363-.399.374a16.874 16.874 0 00-1.472.022 14.824 14.824 0 00-2.247.309.376.376 0 01-.082.011h-.005zm4.325 1.606a.385.385 0 01-.109-.754c.098-.027.234-.065.409-.109a10.344 10.344 0 011.979-.287 10.748 10.748 0 011.566.027c.212.016.37.206.349.417a.39.39 0 01-.42.348 9.959 9.959 0 00-1.456-.022 9.733 9.733 0 00-1.838.271c-.158.038-.289.076-.377.098a.369.369 0 01-.109.016l.006-.005zm3.163 17.016a.404.404 0 01-.186-.049l-2.765-1.481a.39.39 0 01-.158-.521.395.395 0 01.524-.157l2.765 1.481a.39.39 0 01.158.521.382.382 0 01-.338.2v.006zm19.065 6.362a.577.577 0 01-.463-.227 10.41 10.41 0 01-1.56-2.881c-.485-1.372-.938-2.674-.344-3.932.611-1.286 1.942-1.758 3.354-2.251a11.012 11.012 0 013.61-.619c.322 0 .579.255.579.575 0 .32-.257.575-.579.581a9.652 9.652 0 00-3.222.553c-1.282.45-2.291.803-2.694 1.654-.393.836-.05 1.817.387 3.065.321.917.79 1.779 1.39 2.566a.575.575 0 01-.458.927v-.011zM159.365 61.517a.773.773 0 01-.638-.336c-.426-.613-.655-1.259-.687-1.92-.169-3.298 4.526-5.63 7.951-7.334 3.583-1.78 7.465-3.081 11.534-3.868a.77.77 0 01.905.608.767.767 0 01-.611.9c-3.932.76-7.684 2.018-11.136 3.732-2.699 1.346-7.215 3.591-7.1 5.886.016.368.158.748.42 1.128.24.352.153.83-.202 1.069a.755.755 0 01-.436.135z"/><path d="M172.627 70.332a.767.767 0 01-.223-.033 59.653 59.653 0 01-5.334-1.893c-.752-.31-1.783-.732-3.108-1.4a38.965 38.965 0 01-3.529-2.012c-.043-.027-.081-.06-.12-.092-.054-.054-.147-.136-.256-.233-1.238-1.096-2.421-2.257-2.138-3.325.077-.293.339-.814 1.211-.999a.771.771 0 01.916.592.766.766 0 01-.556.9c.147.271.567.765 1.592 1.682.099.086.18.162.246.217a37.892 37.892 0 003.326 1.893 39.276 39.276 0 003 1.35 58.08 58.08 0 005.191 1.845.767.767 0 01.513.96.78.78 0 01-.742.548h.011z"/><path d="M181.15 70.885c-2.595 0-5.208-.109-7.798-.326a.767.767 0 11.131-1.53 90.98 90.98 0 0010.236.283c.071 0 7.749-.277 14.13-1.606a46.57 46.57 0 005.889-1.643c.862-.304 1.326-.494 3.278-1.297l2.367-.97c.66-.272 1.249-.521 1.794-.75 1.707-.72 2.939-1.236 4.406-1.621 1.996-.52 4.107-.754 6.288-.705a.77.77 0 01.753.786c-.011.423-.382.749-.791.749a21.217 21.217 0 00-5.857.656c-1.358.353-2.547.857-4.194 1.546-.545.233-1.14.483-1.805.754l-2.367.971c-1.93.797-2.448 1.009-3.354 1.323a47.657 47.657 0 01-6.091 1.698c-6.517 1.356-14.321 1.633-14.402 1.638-.867.028-1.74.038-2.618.038l.005.006zm41.67-15.698h-.032a14.673 14.673 0 01-1.625-.152 15.2 15.2 0 01-2.645-.63l-.12-.037a160.447 160.447 0 00-13.219-3.445c-4.074-.878-7.297-1.567-11.54-1.958a70.51 70.51 0 00-13.573.087.77.77 0 11-.164-1.53 72.312 72.312 0 0113.874-.092c4.335.396 7.596 1.096 11.724 1.985 4.472.96 8.966 2.132 13.35 3.477l.142.044c.371.12 1.244.401 2.389.57.458.065.921.113 1.385.13.747-.13 1.489-.315 2.209-.554.861-.287 1.477-.575 1.712-.683 2.318-1.08 7.667-3.065 12.303-4.4 2.612-.753 4.608-1.193 7.095-1.225.752-.011 1.51.016 2.252.081a.771.771 0 11-.136 1.535 22.512 22.512 0 00-2.1-.076c-2.307.033-4.199.45-6.686 1.166-5.044 1.454-10.176 3.429-12.057 4.302-.278.13-.955.445-1.904.76a17.84 17.84 0 01-2.519.629c-.044.005-.087.01-.131.01l.016.006zm22.632 17.927a.782.782 0 01-.311-.065L234.3 68.276a89.253 89.253 0 01-5.77-3.162 91.007 91.007 0 01-4.144-2.642.764.764 0 01-.202-1.069.769.769 0 011.074-.2 87.27 87.27 0 009.707 5.684l10.803 4.757a.767.767 0 01-.316 1.47z"/><path d="M245.452 73.114a.774.774 0 01-.589-.271c-1.968-2.322-3.501-4.882-4.553-7.61-.884-2.284-1.576-4.085-1.287-6.423.332-2.647 1.734-4.42 3.506-6.666l.153-.195a26.338 26.338 0 015.137-4.936.777.777 0 011.08.162.766.766 0 01-.164 1.074 24.826 24.826 0 00-4.837 4.649l-.153.195c-1.69 2.137-2.912 3.683-3.19 5.907-.245 1.953.327 3.434 1.194 5.68.993 2.57 2.438 4.984 4.298 7.17a.77.77 0 01-.589 1.264h-.006zm-65.976-8.05c-2.203 0-3.904-.824-4.782-1.361a.763.763 0 01-.251-1.058.768.768 0 011.063-.25c.835.51 2.563 1.33 4.772 1.086 2.214-.244 3.577-1.405 4.483-2.17a5.21 5.21 0 00.567-.542c-.365-.142-1.216-.283-3.109-.331a25.7 25.7 0 00-6.636.737.768.768 0 11-.366-1.491 27.17 27.17 0 017.041-.781c2.312.054 4.411.211 4.722 1.508.148.618-.201 1.22-1.21 2.077-.982.835-2.629 2.23-5.317 2.528a8.59 8.59 0 01-.971.054l-.006-.005z"/><path d="M170.778 67.337a.773.773 0 01-.61-.298.766.766 0 01.136-1.08 13.062 13.062 0 003.703-4.436c.463-.912.818-1.888 1.052-2.892a.774.774 0 01.927-.575c.415.098.677.51.578.923a14.258 14.258 0 01-1.177 3.238c-.977 1.93-2.367 3.596-4.134 4.958a.773.773 0 01-.475.162zm-5.987-8.987h-.027a1.689 1.689 0 01-1.669-1.71 1.688 1.688 0 011.696-1.66h.022a1.69 1.69 0 011.669 1.71 1.688 1.688 0 01-1.696 1.66h.005zm0-1.834a.146.146 0 00-.147.146c0 .05.022.087.043.103a.143.143 0 00.104.044.16.16 0 00.153-.147.155.155 0 00-.148-.151l-.005.005zm25.042 18.063a21.92 21.92 0 01-4.041-.38c-4.892-.933-7.64-1.953-12.199-3.65a.768.768 0 01-.453-.988.776.776 0 01.992-.45c4.636 1.725 7.188 2.674 11.949 3.58a20.23 20.23 0 003.746.353h.022c.916 0 1.843-.065 2.754-.195.769-.109 1.429-.375 1.663-.554-.223-.293-1.112-1.025-3.533-2.061a.765.765 0 01-.404-1.009.772.772 0 011.014-.401c4.281 1.828 4.652 2.972 4.494 3.764-.267 1.335-2.563 1.725-3.016 1.79a22.68 22.68 0 01-2.966.212h-.028l.006-.011zm20.139-3.109c-.349 0-.698-.005-1.047-.021a23.497 23.497 0 01-9.772-2.647.761.761 0 01-.322-1.036.77.77 0 011.041-.32 22.029 22.029 0 009.124 2.473 21.711 21.711 0 006.833-.786c-.224-.743-.665-1.882-1.434-2.653-.24-.238-.633-.634-1.254-.906a5.357 5.357 0 00-.628-.216l-.24-.077a72.14 72.14 0 01-1.641-.542.768.768 0 01-.48-.976.777.777 0 01.982-.478c.371.125.921.315 1.608.532l.24.076c.366.114.546.174.791.276.884.391 1.429.934 1.718 1.221 1.38 1.378 1.903 3.493 2.029 4.106a.771.771 0 01-.524.89 23.289 23.289 0 01-7.018 1.09l-.006-.005zm2.901-18.719a.775.775 0 01-.774-.732.77.77 0 01.736-.803 26.914 26.914 0 002.618-.238.768.768 0 11.229 1.519c-.846.124-1.756.211-2.776.254h-.038.005z"/><path d="M215.567 52.502a.772.772 0 01-.049-1.54c2.656-.169 3.97-1.048 4.096-1.845.109-.689-.627-1.828-3.07-2.788a.772.772 0 01-.437-.998.774.774 0 011.004-.434c2.786 1.096 4.292 2.766 4.024 4.459-.278 1.763-2.345 2.934-5.524 3.14h-.049l.005.006zm-32.622-6.168a.774.774 0 01-.753-.596.77.77 0 01.584-.917c8.186-1.839 16.447-2.36 24.562-1.551 2.28.227 4.575.564 6.833.998.42.081.693.483.611.9a.77.77 0 01-.905.608 73.409 73.409 0 00-6.692-.982c-7.945-.792-16.043-.282-24.065 1.524-.06.011-.115.022-.169.022l-.006-.006zm-11.72 4.991a.785.785 0 01-.649-.347.763.763 0 01.224-1.064 37.896 37.896 0 014.243-2.386 37.205 37.205 0 014.319-1.752c.343-.114.638-.206.845-.271.404-.13.84.097.965.504a.763.763 0 01-.507.96c-.196.06-.474.152-.807.26a36.124 36.124 0 00-8.207 3.971.757.757 0 01-.42.125h-.006z"/><path d="M186.042 47.376a.583.583 0 01-.436-.195.574.574 0 01.049-.814 10.74 10.74 0 012.934-1.833 11.18 11.18 0 012.149-.657.581.581 0 01.682.456.58.58 0 01-.459.678 9.815 9.815 0 00-4.122 1.877c-.18.14-.322.26-.42.347a.572.572 0 01-.382.146l.005-.005zm5.312-.732a.576.576 0 01-.316-1.063 21.857 21.857 0 012.95-1.578c.66-.294 1.342-.56 2.018-.782a.58.58 0 11.371 1.096c-.644.211-1.287.466-1.914.743a20.9 20.9 0 00-2.792 1.497.609.609 0 01-.311.092l-.006-.005zm6.462.01a.578.578 0 01-.349-1.041l.48-.342a15.425 15.425 0 014.538-2.072.586.586 0 01.714.402.578.578 0 01-.404.71 15.12 15.12 0 00-1.914.673c-.807.347-1.57.77-2.274 1.242-.191.125-.338.239-.442.315a.577.577 0 01-.343.114h-.006zm12.494 20.792s-.055 0-.082-.006l-4.357-.602a.58.58 0 01-.496-.65.581.581 0 01.654-.494l4.357.602a.58.58 0 01.497.65.581.581 0 01-.573.5zm28.042-1.161a.559.559 0 01-.311-.092 14.537 14.537 0 01-3.408-2.978c-1.276-1.535-2.482-2.983-2.329-4.828.158-1.887 1.647-3.119 3.218-4.426a15.013 15.013 0 014.362-2.522.58.58 0 01.747.336.574.574 0 01-.338.743 13.994 13.994 0 00-4.03 2.327c-1.499 1.248-2.683 2.23-2.803 3.635-.114 1.377.846 2.533 2.062 3.997a13.284 13.284 0 003.135 2.74.576.576 0 01-.311 1.063l.006.005zM66.406 78.154a.7.7 0 01-.654-.45 2.77 2.77 0 01-.158-1.53c.464-2.414 4.172-3.255 6.877-3.873 2.803-.64 5.731-.89 8.703-.754a.704.704 0 01.671.732c-.016.385-.344.673-.736.667a30.943 30.943 0 00-8.322.716c-2.067.472-5.524 1.259-5.813 2.772-.044.233-.011.494.092.77a.697.697 0 01-.66.944v.006z"/><path d="M74.117 86.496a.699.699 0 01-.354-.097 42.835 42.835 0 01-3.392-2.219c-.47-.342-1.118-.808-1.93-1.503a28.285 28.285 0 01-2.117-1.996.853.853 0 01-.087-.108 3.582 3.582 0 00-.136-.195c-.698-1.01-1.347-2.056-.927-2.821.12-.222.425-.591 1.145-.564.387.01.693.33.682.716a.701.701 0 01-.491.645c.093.228.305.602.742 1.232.049.07.092.135.125.184a25.34 25.34 0 001.969 1.85c.774.656 1.39 1.106 1.843 1.432a41.447 41.447 0 003.277 2.142.695.695 0 01-.36 1.297l.011.005z"/><path d="M92.97 90.011c-.36 0-.714-.005-1.069-.016-4.766-.152-10.072-1.237-10.296-1.286a66.324 66.324 0 01-7.198-1.953.697.697 0 01-.442-.884.702.702 0 01.889-.439c2.312.77 4.684 1.41 7.04 1.91.05.01 5.415 1.106 10.056 1.258 1.435.049 2.901 0 4.347-.152.649-.065 1.003-.12 2.497-.353l1.8-.276c.502-.076.954-.152 1.369-.217 1.309-.212 2.257-.37 3.348-.385a16.55 16.55 0 014.526.57.698.698 0 11-.365 1.35 15.207 15.207 0 00-4.139-.526c-.993.016-1.898.162-3.147.369-.42.07-.878.14-1.385.222l-1.794.276c-1.483.228-1.887.293-2.569.359a35.25 35.25 0 01-3.462.173h-.006zm19.359-5.571c-.283 0-.572-.01-.856-.027a.414.414 0 01-.142-.027 11.93 11.93 0 01-1.118-.385c-.867-.347-1.483-.727-1.75-.89l-.071-.043a114.417 114.417 0 00-8.578-4.605c-2.678-1.291-4.788-2.311-7.662-3.287a50.585 50.585 0 00-9.407-2.213.698.698 0 11.19-1.384 51.205 51.205 0 019.675 2.273c2.95 1.004 5.099 2.04 7.814 3.352a116.192 116.192 0 018.688 4.66l.092.054a9.88 9.88 0 002.443 1.101 11.068 11.068 0 002.874-.2c1.8-.364 5.857-.841 9.309-.993 1.953-.082 3.425-.054 5.17.342.529.119 1.053.27 1.565.439.366.125.562.52.442.884a.709.709 0 01-.889.44 13.814 13.814 0 00-1.429-.402c-1.592-.363-2.961-.39-4.799-.31-3.735.164-7.623.668-9.074.961-.213.043-.742.152-1.467.211-.338.028-.682.044-1.02.044v.005zm11.856 16.214a.697.697 0 01-.426-.147l-6.713-5.137a62.68 62.68 0 01-3.479-3.178 66.686 66.686 0 01-2.438-2.533.694.694 0 01.049-.988.703.703 0 01.993.05 62.274 62.274 0 005.759 5.565l6.685 5.115a.7.7 0 01.131.981.701.701 0 01-.556.272h-.005z"/><path d="M124.19 100.654a.698.698 0 01-.627-.386 19.12 19.12 0 01-1.887-6.097c-.229-1.752-.409-3.135.208-4.746.692-1.817 1.979-2.826 3.61-4.1l.142-.109a19.18 19.18 0 014.439-2.587.695.695 0 01.916.374.693.693 0 01-.377.911 17.788 17.788 0 00-4.111 2.392l-.142.109c-1.516 1.188-2.612 2.045-3.169 3.498-.49 1.28-.343 2.392-.125 4.069.251 1.93.84 3.835 1.75 5.652a.695.695 0 01-.316.938.706.706 0 01-.311.076v.006zM81.097 84.153c-.256 0-.523-.016-.796-.049-1.952-.25-3.255-1.307-3.86-1.915a.693.693 0 01.005-.987.702.702 0 01.992.005c.48.483 1.505 1.319 3.043 1.514 1.532.2 2.65-.364 3.392-.738.11-.054.196-.103.267-.14-.343-.175-.965-.375-1.854-.614a18.182 18.182 0 00-4.69-.597.703.703 0 01-.703-.7c0-.384.316-.699.703-.699 1.756 0 3.452.217 5.056.645 1.717.462 3.135.923 3.13 1.986 0 .64-.616 1.036-1.276 1.367-.677.336-1.849.927-3.409.927v-.005z"/><path d="M73.343 84.11a.696.696 0 01-.289-1.334 9.246 9.246 0 003.266-2.42 9.1 9.1 0 001.2-1.801.701.701 0 01.943-.31.694.694 0 01.311.94 10.503 10.503 0 01-1.385 2.082 10.513 10.513 0 01-3.763 2.788.674.674 0 01-.289.06l.005-.005zm-2.476-7.226a1.352 1.352 0 01-1.32-1.692c.093-.353.311-.646.627-.825a1.374 1.374 0 011.031-.146 1.353 1.353 0 01.982 1.649 1.337 1.337 0 01-.627.825c-.213.124-.448.19-.687.19h-.006zm0-1.394s-.038.017-.044.033c0 .022.011.049.033.054.028.005.05-.01.055-.032.005-.022-.006-.05-.033-.055h-.011zm16.965 17.212c-.223 0-.409-.017-.529-.028a15.48 15.48 0 01-2.116-.358 15.877 15.877 0 01-2.78-.954c-3.246-1.47-4.985-2.647-7.87-4.595a.696.696 0 01-.186-.97.704.704 0 01.977-.185c2.917 1.969 4.526 3.054 7.662 4.48.812.37 1.668.662 2.53.868.627.152 1.276.26 1.92.326a3.62 3.62 0 001.014-.044c-.202-.309-.763-.91-1.974-1.817a.697.697 0 01-.142-.976.706.706 0 01.982-.141c2.732 2.04 2.808 2.94 2.525 3.547-.333.716-1.337.847-2.018.847h.005zm15.777 1.307c-1.581 0-3.141-.223-4.662-.662a16.896 16.896 0 01-6.392-3.51.699.699 0 01-.06-.987.708.708 0 01.993-.06 15.538 15.538 0 005.857 3.217c1.521.44 3.092.64 4.673.602-.038-.531-.163-1.285-.512-1.86-.126-.206-.317-.52-.682-.797-.109-.082-.191-.13-.382-.245l-.158-.092a67.938 67.938 0 01-1.053-.65.698.698 0 01-.212-.966.706.706 0 01.971-.212c.234.152.583.369 1.025.635l.152.092c.257.157.366.222.513.33.573.435.878.94 1.025 1.183.747 1.226.747 2.816.731 3.271a.7.7 0 01-.654.673c-.393.027-.78.038-1.173.038zm3.338-12.677h-.065a20.282 20.282 0 01-1.985-.287.702.702 0 01-.557-.82.708.708 0 01.824-.553c.676.13 1.276.217 1.843.272a.699.699 0 01-.06 1.394v-.006z"/><path d="M108.304 81.462a8.68 8.68 0 01-1.483-.135.692.692 0 01-.567-.808.696.696 0 01.813-.565c1.783.315 2.797-.043 2.993-.499.18-.423-.245-1.318-1.603-2.272a.695.695 0 01-.169-.971.702.702 0 01.976-.169c1.811 1.275 2.591 2.75 2.089 3.95-.404.96-1.505 1.475-3.049 1.475v-.006zm-1.297-5.05a.722.722 0 01-.295-.065 51.185 51.185 0 00-4.466-1.795c-5.366-1.877-11.06-2.88-16.917-2.978a.703.703 0 01-.692-.71.71.71 0 01.714-.69c6.01.098 11.85 1.129 17.358 3.054a53.995 53.995 0 014.587 1.845.694.694 0 01.343.927.704.704 0 01-.638.407l.006.005zM76.37 73.07a.696.696 0 01-.66-.465.692.692 0 01.426-.89 27.14 27.14 0 017.318-1.492.697.697 0 11.093 1.394c-.147.011-.355.022-.6.044a25.725 25.725 0 00-6.337 1.372.708.708 0 01-.234.038h-.006z"/><path d="M87.516 72.274a.395.395 0 01-.343-.207.386.386 0 01.163-.52 7.734 7.734 0 012.345-.776 7.835 7.835 0 011.598-.092.39.39 0 01.371.401.388.388 0 01-.403.37 6.98 6.98 0 00-3.545.776.367.367 0 01-.18.042l-.006.006zm3.583.743a.384.384 0 01-.126-.749c.093-.032.23-.076.393-.13a16.503 16.503 0 013.452-.678.392.392 0 01.42.353.392.392 0 01-.354.417 16.026 16.026 0 00-3.283.64c-.159.05-.284.093-.371.12a.34.34 0 01-.126.021l-.005.006zm4.483 1.095a.379.379 0 01-.355-.233.386.386 0 01.207-.504 11.36 11.36 0 012.323-.673 11.69 11.69 0 011.56-.157.39.39 0 01.398.374.388.388 0 01-.376.396 10.266 10.266 0 00-3.245.63c-.153.053-.278.108-.36.14a.362.362 0 01-.147.033l-.005-.006zm5.148 16.528a.414.414 0 01-.142-.027l-2.923-1.15a.388.388 0 01-.218-.499.391.391 0 01.501-.217l2.924 1.15a.388.388 0 01.218.5.389.389 0 01-.36.243zm19.654 4.096a.579.579 0 01-.42-.18 10.373 10.373 0 01-1.887-2.679c-.644-1.307-1.249-2.544-.802-3.867.453-1.351 1.723-1.97 3.07-2.626a11.08 11.08 0 013.512-1.036.574.574 0 01.644.505.575.575 0 01-.507.64 9.82 9.82 0 00-3.136.922c-1.216.596-2.181 1.063-2.481 1.958-.295.873.163 1.812.747 2.994a9.254 9.254 0 001.68 2.387.578.578 0 01-.42.976v.006zM17.249 12.774a.756.756 0 01-.322-.076 30.788 30.788 0 00-7.87-2.793c-2.077-.429-5.545-1.145-6.445.114a1.464 1.464 0 00-.24.737.708.708 0 01-.747.651.7.7 0 01-.654-.743 2.797 2.797 0 01.496-1.454c1.429-2 5.153-1.23 7.873-.672a32.293 32.293 0 018.23 2.923c.343.18.48.597.3.939a.708.708 0 01-.622.38v-.006z"/><path d="M5.191 22.185a.7.7 0 01-.578-.298 41.282 41.282 0 01-2.154-3.423c-.283-.504-.676-1.198-1.123-2.164a28.737 28.737 0 01-1.09-2.696.549.549 0 01-.034-.135c-.005-.055-.021-.136-.038-.24-.212-1.203-.365-2.424.338-2.95.202-.152.638-.358 1.282-.038A.697.697 0 011.4 11.56c-.005.244.028.678.158 1.427.017.087.028.162.039.222a25.84 25.84 0 001.014 2.5c.425.917.802 1.58 1.074 2.067a41.887 41.887 0 002.083 3.31.694.694 0 01-.174.97.678.678 0 01-.398.125l-.006.005z"/><path d="M36.38 39.326a.7.7 0 01-.448-.163 15.167 15.167 0 00-3.54-2.19c-.905-.397-1.788-.636-3.015-.966-.409-.114-.856-.234-1.352-.375l-1.756-.493c-1.44-.407-1.827-.516-2.482-.738a34.651 34.651 0 01-4.188-1.736c-4.27-2.11-8.638-5.3-8.823-5.435a66.887 66.887 0 01-5.727-4.757.694.694 0 01-.032-.987.702.702 0 01.992-.033 65.851 65.851 0 005.6 4.654c.044.033 4.462 3.25 8.617 5.305a33.91 33.91 0 004.014 1.665c.616.207.96.304 2.405.711l1.756.494c.49.14.932.26 1.341.369 1.282.347 2.204.602 3.207 1.035 1.363.592 2.667 1.4 3.872 2.393.3.244.338.683.093.981a.694.694 0 01-.54.255l.005.011zm20.984 3.857a.707.707 0 01-.48-.19c-.36-.336-.736-.656-1.129-.955-1.292-.987-2.53-1.578-4.232-2.267-3.468-1.4-7.21-2.55-8.649-2.886a12.396 12.396 0 01-3.136-1.182.584.584 0 01-.12-.082 12.041 12.041 0 01-.856-.813 10.831 10.831 0 01-1.216-1.535l-.049-.07a112.978 112.978 0 00-5.873-7.741c-1.898-2.284-3.387-4.085-5.584-6.162a49.92 49.92 0 00-7.624-5.907.7.7 0 01-.218-.966.707.707 0 01.97-.217 51.198 51.198 0 017.842 6.075c2.258 2.137 3.78 3.965 5.699 6.282a112.51 112.51 0 015.95 7.843l.06.087c.152.228.512.76 1.069 1.35.218.234.452.456.692.663.464.249.954.466 1.45.645.606.217 1.07.325 1.25.369 1.788.417 5.676 1.66 8.878 2.956 1.81.732 3.135 1.367 4.559 2.452.43.33.845.683 1.238 1.047a.693.693 0 01.027.987.691.691 0 01-.513.217h-.005zM44.789 55.8a.703.703 0 01-.622-.374l-3.954-7.448a64.22 64.22 0 01-1.832-4.328 56.65 56.65 0 01-1.15-3.315.694.694 0 01.457-.873.7.7 0 01.878.456 61.844 61.844 0 002.907 7.442l3.937 7.415a.697.697 0 01-.294.944.713.713 0 01-.327.081z"/><path d="M44.783 55.8a.706.706 0 01-.703-.678c-.07-2.186.213-4.312.84-6.325.529-1.687.943-3.021 2.176-4.225 1.39-1.367 2.983-1.747 5-2.23l.175-.043a19.152 19.152 0 015.115-.51c.387.01.693.336.676.721a.686.686 0 01-.725.673 17.694 17.694 0 00-4.739.472l-.174.043c-1.876.45-3.229.776-4.347 1.872-.981.96-1.314 2.028-1.816 3.645a17.508 17.508 0 00-.774 5.863.7.7 0 01-.682.722h-.022zM15.1 23.46c-.921 0-2.235-.125-3.577-.96-1.669-1.036-2.41-2.539-2.705-3.341a.703.703 0 011.32-.477c.235.634.818 1.822 2.132 2.636 1.31.813 2.563.764 3.392.732.12 0 .218-.011.3-.022-.245-.298-.72-.743-1.429-1.329a17.917 17.917 0 00-4.013-2.484.7.7 0 11.589-1.27 19.542 19.542 0 014.324 2.68c1.369 1.128 2.465 2.143 2.018 3.103-.273.586-1.025.689-1.734.716-.175.005-.382.016-.611.016h-.005z"/><path d="M5.579 19.69h-.093a.699.699 0 11.005-1.4h.088a9.208 9.208 0 003.904-.845 9.407 9.407 0 001.85-1.14.7.7 0 01.986.109.695.695 0 01-.109.982c-.66.526-1.374.965-2.132 1.318a10.661 10.661 0 01-4.494.976H5.58zm.954-7.534c-.3 0-.606-.098-.856-.304a1.344 1.344 0 01-.197-1.904c.23-.282.557-.455.916-.493.36-.038.715.065.998.298a1.344 1.344 0 01.197 1.904c-.267.33-.66.499-1.058.499zm0-1.394s-.027 0-.033.016c-.01.016-.01.049.006.06.016.016.049.01.06-.006.01-.016.01-.048-.006-.06a.042.042 0 00-.027-.01zm9.582 23.031c-.726 0-1.522-.417-1.816-.59a15.623 15.623 0 01-1.773-1.2 15.63 15.63 0 01-2.132-2.023c-2.334-2.685-3.425-4.47-5.23-7.437a.7.7 0 01.235-.96.708.708 0 01.965.234c1.827 3 2.836 4.654 5.093 7.246a14.071 14.071 0 001.936 1.84c.507.4 1.053.764 1.614 1.09.35.2.71.33.944.38-.055-.364-.31-1.145-1.036-2.469a.698.698 0 01.283-.95.705.705 0 01.955.283c1.63 2.989 1.325 3.835.812 4.274-.24.201-.534.277-.845.277l-.005.005zm13.78 7.866a.78.78 0 01-.245-.044 16.58 16.58 0 01-5.039-2.983 16.784 16.784 0 01-4.34-5.837.696.696 0 01.354-.922.703.703 0 01.927.353c.916 2.05 2.29 3.9 3.975 5.348a15.263 15.263 0 003.998 2.485c.185-.505.387-1.232.31-1.904a2.716 2.716 0 00-.283-1.01c-.066-.119-.12-.195-.245-.379l-.104-.152a47.085 47.085 0 01-.682-1.03.698.698 0 01.213-.966.707.707 0 01.97.212c.148.233.377.58.666 1.003l.104.152c.169.25.24.352.321.515.338.635.404 1.215.437 1.497.163 1.416-.497 2.864-.704 3.277a.698.698 0 01-.627.385h-.006zm7.302-10.567a.673.673 0 01-.349-.092 20.616 20.616 0 01-1.685-1.085.7.7 0 01-.164-.976.708.708 0 01.982-.163c.556.396 1.069.727 1.565 1.009a.698.698 0 01-.349 1.307z"/><path d="M39.962 32.172c-.905 0-2.002-.407-3.163-1.205a.695.695 0 01-.18-.97.704.704 0 01.976-.18c1.489 1.02 2.563 1.123 2.928.782.339-.315.328-1.302-.507-2.729a.694.694 0 01.257-.955.702.702 0 01.96.255c1.112 1.91 1.205 3.575.245 4.454-.398.363-.916.548-1.516.548zm-.643-5.528a.706.706 0 01-.535-.244 51.327 51.327 0 00-3.305-3.482c-4.09-3.933-8.845-7.198-14.13-9.715a.704.704 0 01-.332-.933.71.71 0 01.938-.331c5.42 2.576 10.301 5.934 14.5 9.97a52.761 52.761 0 013.392 3.58.7.7 0 01-.534 1.155h.005zM19.954 12.541a.686.686 0 01-.251-.049 26.098 26.098 0 00-3.621-1.08 25.802 25.802 0 00-3.283-.504.7.7 0 11.125-1.394c1.162.103 2.323.282 3.463.532a26.808 26.808 0 013.817 1.144c.36.136.546.543.404.9a.705.705 0 01-.654.451z"/><path d="M26.945 15.573a.396.396 0 01-.174-.043 7.46 7.46 0 00-1.342-.521 7.149 7.149 0 00-1.816-.25c-.163 0-.3 0-.387.011a.382.382 0 01-.41-.363.388.388 0 01.366-.407c.104-.005.257-.01.437-.01.676 0 1.358.091 2.017.276a8.113 8.113 0 011.49.575.384.384 0 01-.174.727l-.007.005zm2.934 2.207a.368.368 0 01-.131-.02 16.932 16.932 0 00-1.407-.43 16.067 16.067 0 00-1.849-.352c-.164-.022-.294-.032-.387-.043a.384.384 0 01-.35-.418.392.392 0 01.42-.347c.099.01.24.022.41.043a16.594 16.594 0 013.419.82.386.386 0 01-.13.748h.005zm3.626 2.832a.407.407 0 01-.152-.032 10.298 10.298 0 00-3.212-.77c-.164-.011-.295-.017-.388-.022a.388.388 0 01-.376-.396.388.388 0 01.398-.374c.098 0 .246.01.42.021a11.03 11.03 0 013.458.836.386.386 0 01.207.504.384.384 0 01-.355.233zm-5.988 16.333a.373.373 0 01-.278-.12l-2.176-2.256a.383.383 0 01.011-.542.388.388 0 01.545.01l2.176 2.257a.383.383 0 01-.01.543.39.39 0 01-.268.108zm16.241 11.89a.573.573 0 01-.546-.385 10.38 10.38 0 01-.594-3.217c-.033-1.459-.071-2.831.889-3.851.976-1.036 2.388-1.074 3.888-1.117a11.014 11.014 0 013.627.515.578.578 0 11-.355 1.101 9.841 9.841 0 00-3.24-.461c-1.357.038-2.426.065-3.075.754-.633.673-.605 1.714-.578 3.032a9.24 9.24 0 00.529 2.864.576.576 0 01-.545.765z"/></g><defs><clipPath id="clip0_2638_34362"><path fill="#fff" d="M0 0h301v138H0z"/></clipPath></defs></svg>